<svg width="71" height="52" viewBox="0 0 71 52" fill="none" xmlns="http://www.w3.org/2000/svg">
<rect width="71" height="52" fill="#1E1E1E"/>
<ellipse cx="26.5" cy="26" rx="26.5" ry="26" fill="#8B5CF6"/>
<circle cx="48.5" cy="29.5" r="22.5" fill="#3B82F6"/>
<path d="M10.642 15.0909V26H9.32102V15.0909H10.642ZM14.3774 21.0781V26H13.1203V17.8182H14.3348V19.0966H14.4413C14.6331 18.6811 14.9243 18.3473 15.3149 18.0952C15.7055 17.8395 16.2098 17.7116 16.8277 17.7116C17.3817 17.7116 17.8664 17.8253 18.2819 18.0526C18.6974 18.2763 19.0205 18.6172 19.2513 19.0753C19.4822 19.5298 19.5976 20.1051 19.5976 20.8011V26H18.3405V20.8864C18.3405 20.2436 18.1736 19.7429 17.8398 19.3842C17.5059 19.022 17.0479 18.8409 16.4655 18.8409C16.0642 18.8409 15.7055 18.9279 15.3895 19.1019C15.077 19.2759 14.8302 19.5298 14.6491 19.8636C14.468 20.1974 14.3774 20.6023 14.3774 21.0781ZM27.6902 19.6506L26.5609 19.9702C26.4899 19.782 26.3851 19.5991 26.2466 19.4215C26.1117 19.2404 25.927 19.0913 25.6926 18.9741C25.4583 18.8569 25.1582 18.7983 24.7924 18.7983C24.2917 18.7983 23.8745 18.9137 23.5407 19.1445C23.2104 19.3718 23.0453 19.6612 23.0453 20.0128C23.0453 20.3253 23.1589 20.5721 23.3862 20.7532C23.6135 20.9343 23.9686 21.0852 24.4515 21.206L25.666 21.5043C26.3975 21.6818 26.9426 21.9535 27.3013 22.3192C27.66 22.6815 27.8393 23.1484 27.8393 23.7202C27.8393 24.1889 27.7044 24.608 27.4345 24.9773C27.1681 25.3466 26.7953 25.6378 26.3159 25.8509C25.8365 26.0639 25.2789 26.1705 24.6433 26.1705C23.8088 26.1705 23.1181 25.9893 22.5712 25.6271C22.0243 25.2649 21.6781 24.7358 21.5325 24.0398L22.7257 23.7415C22.8393 24.1818 23.0542 24.5121 23.3702 24.7322C23.6898 24.9524 24.1071 25.0625 24.622 25.0625C25.2079 25.0625 25.6731 24.9382 26.0176 24.6896C26.3656 24.4375 26.5396 24.1357 26.5396 23.7841C26.5396 23.5 26.4402 23.2621 26.2413 23.0703C26.0424 22.875 25.737 22.7294 25.3251 22.6335L23.9615 22.3139C23.2122 22.1364 22.6618 21.8612 22.3102 21.4883C21.9622 21.1119 21.7882 20.6413 21.7882 20.0767C21.7882 19.6151 21.9178 19.2067 22.177 18.8516C22.4398 18.4964 22.7967 18.2177 23.2477 18.0153C23.7022 17.8129 24.2172 17.7116 24.7924 17.7116C25.6021 17.7116 26.2377 17.8892 26.6994 18.2443C27.1646 18.5994 27.4949 19.0682 27.6902 19.6506ZM29.7316 26V17.8182H30.9887V26H29.7316ZM30.3708 16.4545C30.1258 16.4545 29.9145 16.3711 29.7369 16.2042C29.5629 16.0373 29.4759 15.8366 29.4759 15.6023C29.4759 15.3679 29.5629 15.1673 29.7369 15.0004C29.9145 14.8335 30.1258 14.75 30.3708 14.75C30.6159 14.75 30.8254 14.8335 30.9994 15.0004C31.1769 15.1673 31.2657 15.3679 31.2657 15.6023C31.2657 15.8366 31.1769 16.0373 30.9994 16.2042C30.8254 16.3711 30.6159 16.4545 30.3708 16.4545ZM36.5938 29.2386C35.9865 29.2386 35.4645 29.1605 35.0277 29.0043C34.5909 28.8516 34.2269 28.6491 33.9357 28.397C33.6481 28.1484 33.419 27.8821 33.2486 27.598L34.25 26.8949C34.3636 27.044 34.5075 27.2145 34.6815 27.4062C34.8555 27.6016 35.0934 27.7702 35.3952 27.9123C35.7006 28.0579 36.1001 28.1307 36.5938 28.1307C37.2543 28.1307 37.7994 27.9709 38.229 27.6513C38.6587 27.3317 38.8736 26.831 38.8736 26.1491V24.4872H38.767C38.6747 24.6364 38.5433 24.821 38.3729 25.0412C38.206 25.2578 37.9645 25.4513 37.6484 25.6218C37.3359 25.7887 36.9134 25.8722 36.3807 25.8722C35.7202 25.8722 35.1271 25.7159 34.6016 25.4034C34.0795 25.0909 33.6658 24.6364 33.3604 24.0398C33.0586 23.4432 32.9077 22.7187 32.9077 21.8665C32.9077 21.0284 33.055 20.2987 33.3498 19.6772C33.6445 19.0522 34.0547 18.5692 34.5803 18.2283C35.1058 17.8839 35.7131 17.7116 36.402 17.7116C36.9347 17.7116 37.3572 17.8004 37.6697 17.978C37.9858 18.152 38.2273 18.3509 38.3942 18.5746C38.5646 18.7947 38.696 18.9759 38.7884 19.1179H38.9162V17.8182H40.1307V26.2344C40.1307 26.9375 39.9709 27.5092 39.6513 27.9496C39.3352 28.3935 38.9091 28.7184 38.3729 28.9244C37.8402 29.1339 37.2472 29.2386 36.5938 29.2386ZM36.5511 24.7429C37.0554 24.7429 37.4815 24.6275 37.8295 24.3967C38.1776 24.1658 38.4421 23.8338 38.6232 23.4006C38.8043 22.9673 38.8949 22.4489 38.8949 21.8452C38.8949 21.2557 38.8061 20.7354 38.6286 20.2844C38.451 19.8335 38.1882 19.4801 37.8402 19.2244C37.4922 18.9687 37.0625 18.8409 36.5511 18.8409C36.0185 18.8409 35.5746 18.9759 35.2195 19.2457C34.8679 19.5156 34.6033 19.8778 34.4258 20.3324C34.2518 20.7869 34.1648 21.2912 34.1648 21.8452C34.1648 22.4134 34.2536 22.9158 34.4311 23.3526C34.6122 23.7859 34.8786 24.1268 35.2301 24.3754C35.5852 24.6204 36.0256 24.7429 36.5511 24.7429ZM43.6889 21.0781V26H42.4318V15.0909H43.6889V19.0966H43.7955C43.9872 18.674 44.2749 18.3384 44.6584 18.0898C45.0455 17.8377 45.5604 17.7116 46.2031 17.7116C46.7607 17.7116 47.2489 17.8235 47.668 18.0472C48.087 18.2674 48.4119 18.6065 48.6428 19.0646C48.8771 19.5192 48.9943 20.098 48.9943 20.8011V26H47.7372V20.8864C47.7372 20.2365 47.5685 19.734 47.2312 19.3789C46.8974 19.0202 46.4339 18.8409 45.8409 18.8409C45.429 18.8409 45.0597 18.9279 44.733 19.1019C44.4098 19.2759 44.1541 19.5298 43.9659 19.8636C43.7813 20.1974 43.6889 20.6023 43.6889 21.0781ZM54.8524 17.8182V18.8835H50.6123V17.8182H54.8524ZM51.8481 15.858H53.1052V23.6562C53.1052 24.0114 53.1567 24.2777 53.2597 24.4553C53.3662 24.6293 53.5012 24.7464 53.6645 24.8068C53.8314 24.8636 54.0072 24.892 54.1919 24.892C54.3303 24.892 54.444 24.8849 54.5328 24.8707C54.6215 24.853 54.6926 24.8388 54.7458 24.8281L55.0015 25.9574C54.9163 25.9893 54.7973 26.0213 54.6446 26.0533C54.4919 26.0888 54.2984 26.1065 54.064 26.1065C53.7089 26.1065 53.3609 26.0302 53.02 25.8775C52.6826 25.7248 52.4021 25.4922 52.1784 25.1797C51.9582 24.8672 51.8481 24.473 51.8481 23.9972V15.858ZM9.05682 41V32.2727H14.2898V33.2102H10.1136V36.1591H13.8977V37.0966H10.1136V41H9.05682ZM16.9691 32.2727V41H15.9634V32.2727H16.9691ZM21.4702 41.1364C20.8793 41.1364 20.3608 40.9957 19.9148 40.7145C19.4716 40.4332 19.125 40.0398 18.875 39.5341C18.6278 39.0284 18.5043 38.4375 18.5043 37.7614C18.5043 37.0795 18.6278 36.4844 18.875 35.9759C19.125 35.4673 19.4716 35.0724 19.9148 34.7912C20.3608 34.5099 20.8793 34.3693 21.4702 34.3693C22.0611 34.3693 22.5781 34.5099 23.0213 34.7912C23.4673 35.0724 23.8139 35.4673 24.0611 35.9759C24.3111 36.4844 24.4361 37.0795 24.4361 37.7614C24.4361 38.4375 24.3111 39.0284 24.0611 39.5341C23.8139 40.0398 23.4673 40.4332 23.0213 40.7145C22.5781 40.9957 22.0611 41.1364 21.4702 41.1364ZM21.4702 40.233C21.919 40.233 22.2884 40.1179 22.5781 39.8878C22.8679 39.6577 23.0824 39.3551 23.2216 38.9801C23.3608 38.6051 23.4304 38.1989 23.4304 37.7614C23.4304 37.3239 23.3608 36.9162 23.2216 36.5384C23.0824 36.1605 22.8679 35.8551 22.5781 35.6222C22.2884 35.3892 21.919 35.2727 21.4702 35.2727C21.0213 35.2727 20.652 35.3892 20.3622 35.6222C20.0724 35.8551 19.858 36.1605 19.7188 36.5384C19.5795 36.9162 19.5099 37.3239 19.5099 37.7614C19.5099 38.1989 19.5795 38.6051 19.7188 38.9801C19.858 39.3551 20.0724 39.6577 20.3622 39.8878C20.652 40.1179 21.0213 40.233 21.4702 40.233ZM27.2315 41L25.2372 34.4545H26.294L27.7088 39.4659H27.777L29.1747 34.4545H30.2486L31.6293 39.4489H31.6974L33.1122 34.4545H34.169L32.1747 41H31.1861L29.7543 35.9716H29.652L28.2202 41H27.2315Z" fill="white"/>
</svg>
